<?xml version="1.0" encoding="UTF-8"?>
<svg id="Layer_2" data-name="Layer 2" xmlns="http://www.w3.org/2000/svg" viewBox="0 0 475 475">
  <defs>
    <style>
      .cls-1 {
        fill: #fff;
      }

      .cls-2 {
        fill: #ff7bac;
      }

      .cls-3 {
        fill: #3fa9f5;
      }
    </style>
  </defs>
  <g id="Layer_1-2" data-name="Layer 1">
    <g>
      <rect class="cls-1" x=".5" y=".5" width="474" height="474" rx="31.27" ry="31.27"/>
      <path d="m443.23,1c16.97,0,30.77,13.8,30.77,30.77v411.47c0,16.97-13.8,30.77-30.77,30.77H31.77c-16.97,0-30.77-13.8-30.77-30.77V31.77C1,14.8,14.8,1,31.77,1h411.47m0-1H31.77C14.22,0,0,14.22,0,31.77v411.47c0,17.54,14.22,31.77,31.77,31.77h411.47c17.54,0,31.77-14.22,31.77-31.77V31.77c0-17.54-14.22-31.77-31.77-31.77h0Z"/>
    </g>
    <rect class="cls-2" x="32" y="35" width="411" height="182" rx="24.03" ry="24.03"/>
    <rect class="cls-3" x="32" y="259" width="411" height="182" rx="24.03" ry="24.03"/>
  </g>
</svg>